<svg width="34" height="34" viewBox="0 0 34 34" fill="none" xmlns="http://www.w3.org/2000/svg">
<g clip-path="url(#clip0_873_1343)">
<path d="M26.7492 25.6886L21.0851 20.0246C22.4462 18.3906 23.1249 16.2948 22.98 14.1731C22.8352 12.0515 21.878 10.0674 20.3075 8.63353C18.737 7.19967 16.6742 6.42648 14.5482 6.47479C12.4222 6.5231 10.3966 7.3892 8.89292 8.89292C7.3892 10.3966 6.5231 12.4222 6.47479 14.5482C6.42648 16.6742 7.19967 18.737 8.63353 20.3075C10.0674 21.878 12.0515 22.8352 14.1731 22.98C16.2948 23.1249 18.3906 22.4462 20.0246 21.0851L25.6886 26.7492L26.7492 25.6886ZM7.9992 14.7492C7.9992 13.4142 8.39508 12.1091 9.13678 10.9991C9.87848 9.88907 10.9327 9.02391 12.1661 8.51301C13.3995 8.00212 14.7567 7.86845 16.0661 8.1289C17.3754 8.38935 18.5782 9.03223 19.5222 9.97623C20.4662 10.9202 21.1091 12.123 21.3695 13.4323C21.63 14.7417 21.4963 16.0989 20.9854 17.3323C20.4745 18.5657 19.6093 19.6199 18.4993 20.3616C17.3893 21.1033 16.0842 21.4992 14.7492 21.4992C12.9596 21.4972 11.2439 20.7854 9.97842 19.52C8.71298 18.2545 8.00119 16.5388 7.9992 14.7492Z" fill="black"/>
</g>
<defs>
<clipPath id="clip0_873_1343">
<rect width="24" height="24" fill="white" transform="translate(5 5)"/>
</clipPath>
</defs>
</svg>
