<svg width="24" height="24" viewBox="0 0 24 24" fill="none" xmlns="http://www.w3.org/2000/svg">
<g clip-path="url(#clip0_7333_232)">
<path d="M13.6064 5.23828L14.0982 4.9919L14.0966 4.98874L13.6064 5.23828ZM13.6855 5.33887L13.3322 5.76034L13.3326 5.76066L13.6855 5.33887ZM13.7979 5.39941L13.6412 5.92662L13.6414 5.92669L13.7979 5.39941ZM13.9258 5.40918L13.9921 5.95517L13.9926 5.9551L13.9258 5.40918ZM14.0469 5.36914L13.7715 4.89303L13.7688 4.89463L14.0469 5.36914ZM15.6289 4.4541L16.1688 4.55882L16.3987 3.37347L15.3535 3.978L15.6289 4.4541ZM14.6416 9.54492L14.1017 9.44021L14.1014 9.44155L14.6416 9.54492ZM14.668 9.74219L14.1735 9.98299L14.1738 9.98363L14.668 9.74219ZM14.8066 9.88379L14.5549 10.3728L14.5554 10.3731L14.8066 9.88379ZM15.0039 9.91406L15.0963 10.4562L15.097 10.4561L15.0039 9.91406ZM15.1787 9.82031L15.5778 10.1988L15.5811 10.1953L15.1787 9.82031ZM17.2256 7.62402L17.7317 7.40882L17.4005 6.62968L16.8232 7.24904L17.2256 7.62402ZM17.7334 8.81836L17.2272 9.03357L17.228 9.03524L17.7334 8.81836ZM17.8779 8.97363L17.624 9.46149L17.6243 9.46166L17.8779 8.97363ZM18.0869 9.00293L18.1989 9.54142L18.2011 9.54095L18.0869 9.00293ZM20.71 8.44629L21.233 8.61645L21.5277 7.71051L20.5958 7.90827L20.71 8.44629ZM19.8096 11.2139L20.3323 11.3851L20.3326 11.384L19.8096 11.2139ZM19.8193 11.4365L19.3141 11.654L19.3142 11.6541L19.8193 11.4365ZM19.9746 11.5967L19.7396 12.094L19.742 12.0951L19.9746 11.5967ZM21 12.0752L21.3461 12.5026L22.0299 11.9489L21.2326 11.5768L21 12.0752ZM16.4463 15.7627L16.1002 15.3353L16.0991 15.3362L16.4463 15.7627ZM16.3418 15.9238L15.8113 15.7785L15.8113 15.7788L16.3418 15.9238ZM16.3496 16.1162L16.8666 15.9286L16.8655 15.9255L16.3496 16.1162ZM16.9111 17.6641L16.8159 18.2058L17.7524 18.3704L17.4282 17.4765L16.9111 17.6641ZM12.7549 16.9336L12.8501 16.3919L12.8481 16.3916L12.7549 16.9336ZM12.5518 16.9443L12.4021 16.4151L12.4016 16.4152L12.5518 16.9443ZM12.3721 17.042L12.0081 16.6297L12.0077 16.63L12.3721 17.042ZM12.2539 17.207L11.7476 16.9921L11.7475 16.9925L12.2539 17.207ZM12.2178 17.4072L11.6683 17.432L11.6685 17.4359L12.2178 17.4072ZM12.4355 21.584V22.134H13.015L12.9848 21.5553L12.4355 21.584ZM11.5645 21.584L11.0152 21.5553L10.985 22.134H11.5645V21.584ZM11.7822 17.4072L12.3315 17.4359L12.3317 17.432L11.7822 17.4072ZM11.7461 17.207L12.2525 16.9925L12.2524 16.9923L11.7461 17.207ZM11.627 17.042L11.991 16.6297L11.9909 16.6296L11.627 17.042ZM11.4482 16.9443L11.5984 16.4152L11.5983 16.4152L11.4482 16.9443ZM11.2451 16.9336L11.1521 16.3915L11.1499 16.3919L11.2451 16.9336ZM7.08887 17.6641L6.57173 17.4768L6.24817 18.3702L7.18407 18.2058L7.08887 17.6641ZM7.64941 16.1162L7.13352 15.9255L7.13228 15.9289L7.64941 16.1162ZM7.6582 15.9238L8.18878 15.7789L8.18866 15.7785L7.6582 15.9238ZM7.55273 15.7627L7.89939 15.3357L7.8989 15.3353L7.55273 15.7627ZM3 12.0752L2.76741 11.5768L1.97016 11.9488L2.65383 12.5026L3 12.0752ZM4.02539 11.5967L4.25798 12.0951L4.26038 12.094L4.02539 11.5967ZM4.17969 11.4365L4.68464 11.6545L4.68489 11.654L4.17969 11.4365ZM4.19043 11.2139L3.66741 11.384L3.66775 11.3851L4.19043 11.2139ZM3.29004 8.44629L3.40421 7.90827L2.47229 7.71051L2.76702 8.61645L3.29004 8.44629ZM5.91309 9.00293L5.79891 9.54096L5.8017 9.54153L5.91309 9.00293ZM6.12207 8.97363L6.37602 9.46149L6.37619 9.46141L6.12207 8.97363ZM6.26562 8.81836L6.77106 9.03524L6.77177 9.03357L6.26562 8.81836ZM6.77344 7.62402L7.17579 7.24904L6.59857 6.62968L6.26729 7.40882L6.77344 7.62402ZM8.82031 9.82031L8.41794 10.1953L8.42118 10.1987L8.82031 9.82031ZM8.99609 9.91406L8.9036 10.4562L8.90368 10.4562L8.99609 9.91406ZM9.19238 9.88379L9.44329 10.3732L9.44363 10.3731L9.19238 9.88379ZM9.33203 9.74219L9.82632 9.98339L9.82652 9.98299L9.33203 9.74219ZM9.35742 9.54492L9.89758 9.44135L9.89738 9.44031L9.35742 9.54492ZM8.37109 4.4541L8.64647 3.978L7.60153 3.37361L7.83113 4.55872L8.37109 4.4541ZM9.95312 5.36914L10.2308 4.89437L10.2285 4.89304L9.95312 5.36914ZM10.0742 5.40918L10.0079 5.95517L10.008 5.95517L10.0742 5.40918ZM10.2012 5.39941L10.3568 5.92692L10.3576 5.92669L10.2012 5.39941ZM10.3145 5.33887L10.6678 5.76037L10.6678 5.76034L10.3145 5.33887ZM10.3936 5.23828L9.90341 4.98873L9.9017 4.99215L10.3936 5.23828ZM12 2.08301L12.4901 1.83347L12 0.870782L11.5099 1.83347L12 2.08301ZM13.6064 5.23828L13.1147 5.48466C13.1664 5.5879 13.2396 5.68273 13.3322 5.76034L13.6855 5.33887L14.0389 4.91739C14.0656 4.93977 14.085 4.96553 14.0982 4.9919L13.6064 5.23828ZM13.6855 5.33887L13.3326 5.76066C13.4216 5.8352 13.5264 5.89251 13.6412 5.92662L13.7979 5.39941L13.9545 4.8722C13.9871 4.88187 14.0153 4.89762 14.0385 4.91707L13.6855 5.33887ZM13.7979 5.39941L13.6414 5.92669C13.7628 5.96271 13.8832 5.96839 13.9921 5.95517L13.9258 5.40918L13.8595 4.86319C13.8828 4.86035 13.9155 4.86062 13.9543 4.87213L13.7979 5.39941ZM13.9258 5.40918L13.9926 5.9551C14.1023 5.94168 14.2169 5.90702 14.325 5.84365L14.0469 5.36914L13.7688 4.89463C13.8028 4.8747 13.8346 4.86624 13.8589 4.86326L13.9258 5.40918ZM14.0469 5.36914L14.3222 5.84524L15.9043 4.9302L15.6289 4.4541L15.3535 3.978L13.7715 4.89304L14.0469 5.36914ZM15.6289 4.4541L15.089 4.34939L14.1017 9.44021L14.6416 9.54492L15.1815 9.64964L16.1688 4.55882L15.6289 4.4541ZM14.6416 9.54492L14.1014 9.44155C14.0661 9.62583 14.0922 9.81599 14.1735 9.98299L14.668 9.74219L15.1625 9.50139C15.1843 9.54626 15.1915 9.59743 15.1818 9.64829L14.6416 9.54492ZM14.668 9.74219L14.1738 9.98363C14.2556 10.1511 14.3893 10.2875 14.5549 10.3728L14.8066 9.88379L15.0584 9.3948C15.1035 9.418 15.1398 9.45509 15.1621 9.50075L14.668 9.74219ZM14.8066 9.88379L14.5554 10.3731C14.7222 10.4587 14.9126 10.4876 15.0963 10.4562L15.0039 9.91406L14.9115 9.37188C14.9611 9.36342 15.0121 9.371 15.0579 9.39453L14.8066 9.88379ZM15.0039 9.91406L15.097 10.4561C15.2823 10.4243 15.4504 10.3331 15.5778 10.1988L15.1787 9.82031L14.7796 9.44186C14.8136 9.40604 14.8593 9.38084 14.9108 9.372L15.0039 9.91406ZM15.1787 9.82031L15.5811 10.1953L17.6279 7.99901L17.2256 7.62402L16.8232 7.24904L14.7764 9.44533L15.1787 9.82031ZM17.2256 7.62402L16.7194 7.83923L17.2273 9.03357L17.7334 8.81836L18.2395 8.60315L17.7317 7.40882L17.2256 7.62402ZM17.7334 8.81836L17.228 9.03524C17.3073 9.22015 17.4485 9.37017 17.624 9.46149L17.8779 8.97363L18.1319 8.48577C18.1786 8.51007 18.2167 8.54997 18.2388 8.60148L17.7334 8.81836ZM17.8779 8.97363L17.6243 9.46166C17.7988 9.55236 18.0015 9.58245 18.1989 9.54141L18.0869 9.00293L17.9749 8.46445C18.0304 8.45291 18.0856 8.46173 18.1316 8.48561L17.8779 8.97363ZM18.0869 9.00293L18.2011 9.54095L20.8241 8.98431L20.71 8.44629L20.5958 7.90827L17.9727 8.46491L18.0869 9.00293ZM20.71 8.44629L20.1869 8.27613L19.2866 11.0437L19.8096 11.2139L20.3326 11.384L21.233 8.61645L20.71 8.44629ZM19.8096 11.2139L19.2869 11.0427C19.2217 11.2416 19.2304 11.4593 19.3141 11.654L19.8193 11.4365L20.3245 11.2191C20.3477 11.273 20.3497 11.3318 20.3323 11.3851L19.8096 11.2139ZM19.8193 11.4365L19.3142 11.6541C19.3984 11.8494 19.5512 12.0049 19.7396 12.094L19.9746 11.5967L20.2096 11.0994C20.2595 11.123 20.3009 11.1643 20.3245 11.2189L19.8193 11.4365ZM19.9746 11.5967L19.742 12.0951L20.7674 12.5736L21 12.0752L21.2326 11.5768L20.2072 11.0983L19.9746 11.5967ZM21 12.0752L20.6539 11.6478L16.1002 15.3353L16.4463 15.7627L16.7924 16.1901L21.3461 12.5026L21 12.0752ZM16.4463 15.7627L16.0991 15.3362C15.9575 15.4514 15.8583 15.6071 15.8113 15.7785L16.3418 15.9238L16.8722 16.0692C16.8599 16.1141 16.8335 16.1567 16.7935 16.1892L16.4463 15.7627ZM16.3418 15.9238L15.8113 15.7788C15.7646 15.9494 15.77 16.1345 15.8337 16.3069L16.3496 16.1162L16.8655 15.9255C16.8837 15.9748 16.8844 16.0248 16.8723 16.0689L16.3418 15.9238ZM16.3496 16.1162L15.8326 16.3038L16.3941 17.8516L16.9111 17.6641L17.4282 17.4765L16.8666 15.9286L16.3496 16.1162ZM16.9111 17.6641L17.0063 17.1224L12.8501 16.3919L12.7549 16.9336L12.6597 17.4753L16.8159 18.2058L16.9111 17.6641ZM12.7549 16.9336L12.8481 16.3916C12.6994 16.366 12.5469 16.3742 12.4021 16.4151L12.5518 16.9443L12.7014 17.4736C12.6887 17.4772 12.6752 17.478 12.6617 17.4756L12.7549 16.9336ZM12.5518 16.9443L12.4016 16.4152C12.2586 16.4558 12.123 16.5282 12.0081 16.6297L12.3721 17.042L12.7361 17.4543C12.7242 17.4647 12.7127 17.4704 12.7019 17.4734L12.5518 16.9443ZM12.3721 17.042L12.0077 16.63C11.8927 16.7317 11.8052 16.8564 11.7476 16.9921L12.2539 17.207L12.7602 17.4219C12.7561 17.4315 12.7488 17.4431 12.7364 17.454L12.3721 17.042ZM12.2539 17.207L11.7475 16.9925C11.689 17.1305 11.6615 17.2807 11.6683 17.432L12.2178 17.4072L12.7672 17.3825C12.7679 17.3967 12.7653 17.4099 12.7603 17.4216L12.2539 17.207ZM12.2178 17.4072L11.6685 17.4359L11.8863 21.6126L12.4355 21.584L12.9848 21.5553L12.767 17.3786L12.2178 17.4072ZM12.4355 21.584V21.034H11.5645V21.584V22.134H12.4355V21.584ZM11.5645 21.584L12.1137 21.6126L12.3315 17.4359L11.7822 17.4072L11.233 17.3786L11.0152 21.5553L11.5645 21.584ZM11.7822 17.4072L12.3317 17.432C12.3385 17.2807 12.311 17.1305 12.2525 16.9925L11.7461 17.207L11.2397 17.4216C11.2347 17.4099 11.2321 17.3967 11.2328 17.3825L11.7822 17.4072ZM11.7461 17.207L12.2524 16.9923C12.1931 16.8524 12.1033 16.7288 11.991 16.6297L11.627 17.042L11.2629 17.4543C11.2536 17.4461 11.2454 17.4352 11.2398 17.4218L11.7461 17.207ZM11.627 17.042L11.9909 16.6296C11.878 16.53 11.7439 16.4565 11.5984 16.4152L11.4482 16.9443L11.2981 17.4734C11.2848 17.4697 11.2729 17.4631 11.263 17.4544L11.627 17.042ZM11.4482 16.9443L11.5983 16.4152C11.4529 16.374 11.3004 16.3661 11.1521 16.3915L11.2451 16.9336L11.3382 17.4757C11.3252 17.4779 11.3115 17.4772 11.2982 17.4735L11.4482 16.9443ZM11.2451 16.9336L11.1499 16.3919L6.99366 17.1224L7.08887 17.6641L7.18407 18.2058L11.3403 17.4753L11.2451 16.9336ZM7.08887 17.6641L7.606 17.8513L8.16655 16.3035L7.64941 16.1162L7.13228 15.9289L6.57173 17.4768L7.08887 17.6641ZM7.64941 16.1162L8.1653 16.3069C8.22706 16.1398 8.23684 15.955 8.18878 15.7789L7.6582 15.9238L7.12763 16.0687C7.11412 16.0192 7.11726 15.9695 7.13353 15.9255L7.64941 16.1162ZM7.6582 15.9238L8.18866 15.7785C8.14052 15.6028 8.0383 15.4485 7.89939 15.3357L7.55273 15.7627L7.20608 16.1897C7.16916 16.1597 7.14117 16.1181 7.12775 16.0692L7.6582 15.9238ZM7.55273 15.7627L7.8989 15.3353L3.34617 11.6478L3 12.0752L2.65383 12.5026L7.20656 16.1901L7.55273 15.7627ZM3 12.0752L3.23259 12.5736L4.25798 12.0951L4.02539 11.5967L3.7928 11.0983L2.76741 11.5768L3 12.0752ZM4.02539 11.5967L4.26038 12.094C4.45227 12.0033 4.60207 11.8458 4.68464 11.6545L4.17969 11.4365L3.67474 11.2185C3.69666 11.1677 3.73686 11.1247 3.7904 11.0994L4.02539 11.5967ZM4.17969 11.4365L4.68489 11.654C4.76666 11.464 4.77983 11.2464 4.71311 11.0427L4.19043 11.2139L3.66775 11.3851C3.64873 11.327 3.65331 11.2683 3.67449 11.2191L4.17969 11.4365ZM4.19043 11.2139L4.71345 11.0437L3.81306 8.27613L3.29004 8.44629L2.76702 8.61645L3.66741 11.384L4.19043 11.2139ZM3.29004 8.44629L3.17587 8.98431L5.79891 9.54095L5.91309 9.00293L6.02726 8.46491L3.40421 7.90827L3.29004 8.44629ZM5.91309 9.00293L5.8017 9.54153C5.99801 9.58213 6.20078 9.55272 6.37602 9.46149L6.12207 8.97363L5.86812 8.48577C5.91491 8.46142 5.96996 8.45305 6.02447 8.46433L5.91309 9.00293ZM6.12207 8.97363L6.37619 9.46141C6.55478 9.36837 6.69321 9.21666 6.77106 9.03524L6.26562 8.81836L5.76019 8.60148C5.78083 8.55339 5.81803 8.51186 5.86795 8.48586L6.12207 8.97363ZM6.26562 8.81836L6.77177 9.03357L7.27959 7.83923L6.77344 7.62402L6.26729 7.40882L5.75948 8.60315L6.26562 8.81836ZM6.77344 7.62402L6.37108 7.99901L8.41796 10.1953L8.82031 9.82031L9.22267 9.44533L7.17579 7.24904L6.77344 7.62402ZM8.82031 9.82031L8.42118 10.1987C8.55023 10.3348 8.71996 10.4249 8.9036 10.4562L8.99609 9.91406L9.08859 9.3719C9.13815 9.38035 9.18398 9.40449 9.21945 9.44191L8.82031 9.82031ZM8.99609 9.91406L8.90368 10.4562C9.08845 10.4877 9.27768 10.4581 9.44329 10.3732L9.19238 9.88379L8.94147 9.39436C8.98616 9.37145 9.03771 9.36322 9.08851 9.37188L8.99609 9.91406ZM9.19238 9.88379L9.44363 10.3731C9.6064 10.2895 9.74281 10.1545 9.82632 9.98339L9.33203 9.74219L8.83774 9.50099C8.86167 9.45195 8.89924 9.41605 8.94114 9.39453L9.19238 9.88379ZM9.33203 9.74219L9.82652 9.98299C9.91021 9.81111 9.93192 9.62043 9.89758 9.44135L9.35742 9.54492L8.81726 9.6485C8.80852 9.60289 8.81336 9.55106 8.83755 9.50139L9.33203 9.74219ZM9.35742 9.54492L9.89738 9.44031L8.91105 4.34949L8.37109 4.4541L7.83113 4.55872L8.81746 9.64954L9.35742 9.54492ZM8.37109 4.4541L8.09572 4.9302L9.67775 5.84524L9.95312 5.36914L10.2285 4.89304L8.64647 3.978L8.37109 4.4541ZM9.95312 5.36914L9.67546 5.8439C9.78278 5.90667 9.89714 5.94172 10.0079 5.95517L10.0742 5.40918L10.1405 4.86319C10.166 4.86629 10.1976 4.87499 10.2308 4.89438L9.95312 5.36914ZM10.0742 5.40918L10.008 5.95517C10.1178 5.96851 10.2371 5.96225 10.3568 5.92692L10.2012 5.39941L10.0455 4.8719C10.0829 4.86086 10.1158 4.86019 10.1405 4.86318L10.0742 5.40918ZM10.2012 5.39941L10.3576 5.92669C10.4687 5.89373 10.5752 5.83794 10.6678 5.76037L10.3145 5.33887L9.96113 4.91737C9.98768 4.89511 10.0162 4.8806 10.0447 4.87213L10.2012 5.39941ZM10.3145 5.33887L10.6678 5.76034C10.7603 5.68281 10.8335 5.58806 10.8854 5.48442L10.3936 5.23828L9.9017 4.99215C9.91505 4.96548 9.93459 4.93962 9.9611 4.91739L10.3145 5.33887ZM10.3936 5.23828L10.8837 5.48782L12.4901 2.33255L12 2.08301L11.5099 1.83347L9.90342 4.98874L10.3936 5.23828ZM12 2.08301L11.5099 2.33255L13.1163 5.48782L13.6064 5.23828L14.0966 4.98874L12.4901 1.83347L12 2.08301Z" fill="black"/>
</g>
<defs>
<clipPath id="clip0_7333_232">
<rect width="24" height="24" fill="white"/>
</clipPath>
</defs>
</svg>
