<svg width="17" height="17" viewBox="0 0 17 17" fill="none" xmlns="http://www.w3.org/2000/svg">
<g clip-path="url(#clip0_4781_2985)">
<path d="M9 11.5V7.5H7V8.5H8V11.5H6.5V12.5H10.5V11.5H9Z" fill="black"/>
<path d="M8.5 4.5C8.35166 4.5 8.20666 4.54399 8.08332 4.6264C7.95999 4.70881 7.86386 4.82594 7.80709 4.96299C7.75032 5.10003 7.73547 5.25083 7.76441 5.39632C7.79335 5.5418 7.86478 5.67544 7.96967 5.78033C8.07456 5.88522 8.2082 5.95665 8.35368 5.98559C8.49917 6.01453 8.64997 5.99968 8.78701 5.94291C8.92406 5.88614 9.04119 5.79001 9.1236 5.66668C9.20601 5.54334 9.25 5.39834 9.25 5.25C9.25 5.05109 9.17098 4.86032 9.03033 4.71967C8.88968 4.57902 8.69891 4.5 8.5 4.5Z" fill="black"/>
<path d="M8.5 15.5C7.11553 15.5 5.76216 15.0895 4.61101 14.3203C3.45987 13.5511 2.56266 12.4579 2.03285 11.1788C1.50303 9.8997 1.36441 8.49224 1.63451 7.13437C1.9046 5.7765 2.57129 4.52922 3.55026 3.55026C4.52922 2.57129 5.7765 1.9046 7.13437 1.63451C8.49224 1.36441 9.8997 1.50303 11.1788 2.03285C12.4579 2.56266 13.5511 3.45987 14.3203 4.61101C15.0895 5.76216 15.5 7.11553 15.5 8.5C15.5 10.3565 14.7625 12.137 13.4497 13.4497C12.137 14.7625 10.3565 15.5 8.5 15.5ZM8.5 2.5C7.31332 2.5 6.15328 2.8519 5.16658 3.51119C4.17989 4.17047 3.41085 5.10755 2.95673 6.2039C2.5026 7.30026 2.38378 8.50666 2.61529 9.67054C2.8468 10.8344 3.41825 11.9035 4.25736 12.7426C5.09648 13.5818 6.16558 14.1532 7.32946 14.3847C8.49335 14.6162 9.69975 14.4974 10.7961 14.0433C11.8925 13.5892 12.8295 12.8201 13.4888 11.8334C14.1481 10.8467 14.5 9.68669 14.5 8.5C14.5 6.9087 13.8679 5.38258 12.7426 4.25736C11.6174 3.13214 10.0913 2.5 8.5 2.5Z" fill="black"/>
</g>
<defs>
<clipPath id="clip0_4781_2985">
<rect width="16" height="16" fill="white" transform="translate(0.5 0.5)"/>
</clipPath>
</defs>
</svg>
