<svg width="30" height="18" viewBox="0 0 30 18" fill="none" xmlns="http://www.w3.org/2000/svg">
<g clip-path="url(#clip0_1393_2260)">
<path d="M29.3977 17.0397C29.3977 17.5698 28.9679 18 28.4374 18H1.55751C1.02741 18 0.597656 17.5702 0.597656 17.0397V0.9603C0.597656 0.4293 1.02741 0 1.55751 0H28.4376C28.9679 0 29.3977 0.42975 29.3977 0.9603V17.0397Z" fill="#F2F2F2"/>
<path d="M8.51562 18.0007H28.4394C28.9692 18.0007 29.3995 17.571 29.3995 17.0404V10.3008C27.4867 11.5131 20.2777 15.6918 8.51585 18.0007H8.51562Z" fill="#F58220"/>
<path d="M15.3475 7.59766C14.5539 7.59766 13.9102 8.21776 13.9102 8.98276C13.9102 9.79613 14.5253 10.4039 15.3475 10.4039C16.148 10.4039 16.7803 9.78803 16.7803 8.99828C16.7807 8.21393 16.1525 7.59788 15.3477 7.59788L15.3475 7.59766Z" fill="url(#paint0_radial_1393_2260)"/>
<path d="M7.19039 7.65014H6.41797V10.3456H7.18679C7.59449 10.3456 7.88947 10.2484 8.14822 10.0347C8.45512 9.77932 8.63714 9.39569 8.63714 8.99902C8.63714 8.20319 8.04314 7.65014 7.19039 7.65014ZM7.80509 9.67447C7.63859 9.82432 7.42529 9.88889 7.08509 9.88889H6.94334V8.10689H7.08509C7.42529 8.10689 7.63072 8.16764 7.80509 8.32469C7.98689 8.48669 8.09489 8.73712 8.09489 8.99519C8.09489 9.25462 7.98689 9.51359 7.80509 9.67447ZM8.87969 7.65014H9.40439V10.3456H8.87969V7.65014ZM10.69 8.68379C10.3744 8.56679 10.2821 8.49029 10.2821 8.34472C10.2821 8.17552 10.4473 8.04637 10.6736 8.04637C10.8311 8.04637 10.9603 8.11094 11.0984 8.26394L11.3729 7.90529C11.1466 7.70662 10.8757 7.60559 10.5805 7.60559C10.1041 7.60559 9.74009 7.93724 9.74009 8.37734C9.74009 8.74972 9.90997 8.93939 10.4032 9.11714C10.6095 9.18959 10.7143 9.23819 10.7668 9.27104C10.8718 9.34012 10.9243 9.43642 10.9243 9.54937C10.9243 9.76829 10.751 9.92962 10.5161 9.92962C10.2652 9.92962 10.0634 9.80474 9.94237 9.57007L9.60329 9.89789C9.84494 10.2534 10.1359 10.4109 10.5364 10.4109C11.0818 10.4109 11.4656 10.0468 11.4656 9.52552C11.4656 9.09734 11.2888 8.90317 10.6898 8.68402L10.69 8.68379ZM11.6314 8.99924C11.6314 9.79169 12.254 10.4059 13.0543 10.4059C13.2809 10.4059 13.4746 10.3616 13.7131 10.2484V9.63014C13.5028 9.84052 13.3167 9.92489 13.0786 9.92489C12.5494 9.92489 12.1735 9.54082 12.1735 8.99519C12.1735 8.47837 12.5609 8.06999 13.0546 8.06999C13.305 8.06999 13.4951 8.15909 13.7138 8.37329V7.75454C13.4836 7.63754 13.2931 7.58984 13.0669 7.58984C12.2704 7.58984 11.6314 8.21602 11.6314 8.99902V8.99924ZM17.9724 9.46049L17.2533 7.65014H16.6791L17.8234 10.4143H18.1058L19.2704 7.64992H18.7012M19.5096 10.3454H21V9.88867H20.0338V9.16124H20.9631V8.70449H20.0338V8.10599H21V7.64969H19.5096M23.0808 8.44574C23.0808 7.94062 22.7336 7.65014 22.1275 7.65014H21.3472V10.3456H21.8732V9.26249H21.9418L22.6693 10.3454H23.3155L22.4665 9.20984C22.8625 9.12884 23.0808 8.85839 23.0808 8.44574ZM22.026 8.89057H21.873V8.07382H22.0345C22.3621 8.07382 22.5399 8.21197 22.5399 8.47387C22.5399 8.74477 22.3621 8.89057 22.026 8.89057Z" fill="#081A23"/>
<path d="M23.4512 7.85047C23.4512 7.80322 23.4193 7.77734 23.3617 7.77734H23.2852V8.01517H23.3419V7.92292L23.4078 8.01517H23.4787L23.3995 7.91662C23.4328 7.90762 23.4512 7.88354 23.4512 7.85047ZM23.3518 7.88264H23.3419V7.82122H23.3522C23.381 7.82122 23.395 7.83112 23.395 7.85137C23.395 7.87207 23.3806 7.88264 23.3518 7.88264Z" fill="#231F20"/>
<path d="M23.3711 7.6875C23.2556 7.6875 23.1641 7.77975 23.1641 7.89518C23.1641 8.00993 23.2563 8.10217 23.3711 8.10217C23.4836 8.10217 23.5758 8.00903 23.5758 7.89518C23.5758 7.78133 23.4836 7.6875 23.3711 7.6875ZM23.3706 8.0655C23.2788 8.0655 23.2048 7.9899 23.2048 7.89562C23.2048 7.80045 23.2777 7.72507 23.3706 7.72507C23.4602 7.72507 23.534 7.80202 23.534 7.89562C23.534 7.989 23.4602 8.0655 23.3706 8.0655Z" fill="#231F20"/>
</g>
<defs>
<radialGradient id="paint0_radial_1393_2260" cx="0" cy="0" r="1" gradientUnits="userSpaceOnUse" gradientTransform="translate(15.3454 9.00076) scale(1.41908)">
<stop offset="0.006" stop-color="#FFEEE1"/>
<stop offset="0.097" stop-color="#FFEAD8"/>
<stop offset="0.245" stop-color="#FEDDC2"/>
<stop offset="0.433" stop-color="#FCCA9F"/>
<stop offset="0.652" stop-color="#F9AF72"/>
<stop offset="0.895" stop-color="#F68F39"/>
<stop offset="1" stop-color="#F48220"/>
</radialGradient>
<clipPath id="clip0_1393_2260">
<rect width="28.8" height="18" fill="white" transform="translate(0.597656)"/>
</clipPath>
</defs>
</svg>
