<svg width="29" height="18" viewBox="0 0 29 18" fill="none" xmlns="http://www.w3.org/2000/svg">
<g clip-path="url(#clip0_1393_2286)">
<path d="M28.9992 17.0397C28.9992 17.5696 28.5695 18 28.0391 18H1.15907C0.628969 18 0.199219 17.5698 0.199219 17.0397V0.9603C0.199219 0.4293 0.628969 0 1.15907 0H28.0394C28.5695 0 28.9992 0.42975 28.9992 0.9603V17.0397Z" fill="#F9F9FA"/>
<path d="M19.6124 9.61563C19.6475 10.6646 19.6826 11.7486 19.63 12.8151C19.5951 13.2348 19.333 13.6368 18.9482 13.8816C18.6512 14.074 18.2836 14.0918 17.8991 14.1089L16.509 14.0918L16.5 5.19191C16.5704 4.59723 17.0076 4.09053 17.567 3.93303C18.2483 3.84528 18.8783 3.88061 19.5949 3.86328L19.6298 4.31778V9.37061L19.6122 9.38816V9.61541L19.6124 9.61563Z" fill="#03A550"/>
<path d="M9.54297 9.27621V5.07996C9.63072 4.60746 10.0155 4.17096 10.47 3.99591C11.1517 3.78576 11.9385 3.90884 12.6376 3.89016C12.6725 4.57281 12.6376 5.42961 12.6556 6.02406L12.6905 11.4961C12.6023 12.3353 12.9177 13.472 11.8681 13.9441C11.2044 14.2762 10.312 14.0667 9.56029 14.1367L9.54297 14.0143V9.27621Z" fill="#0C72BA"/>
<path d="M9.54319 9.44971C9.82287 9.81713 10.2078 10.0964 10.6799 10.1139C11.2568 10.1668 12.0087 10.219 12.393 9.67741C12.6556 9.39728 12.4983 9.01298 12.5505 8.64578L12.5334 7.98113C12.2011 7.91093 11.9034 7.98113 11.5187 7.96313C11.3268 8.68088 11.8337 9.48458 11.012 9.85201C10.8196 9.90443 10.5395 9.86956 10.3476 9.74693C10.033 9.67718 10.2081 9.17003 9.78822 9.30976L9.54297 9.27533V9.44948L9.54319 9.44971Z" fill="white"/>
<path d="M16.132 4.46599L16.1495 12.9809C16.0273 13.3827 15.7123 13.8201 15.2754 13.9776C14.6107 14.2044 13.7888 14.0998 13.0546 14.0998L13.0195 5.13019C13.0546 4.71057 13.3345 4.34382 13.7013 4.11634C13.9639 3.94152 14.2784 3.88842 14.6107 3.87109H16.0969L16.132 4.46599Z" fill="#EB2227"/>
<path d="M15.9937 7.98636C16.0288 8.09144 15.9937 8.17874 16.0113 8.30136C15.487 8.16119 14.8397 8.00391 14.3674 8.38866C14.1931 8.59791 14.0878 8.80829 14.1053 9.08774C14.158 9.40229 14.3506 9.69974 14.6476 9.82236C15.1021 9.96231 15.5739 9.83969 15.9935 9.73461C16.0111 9.82236 16.0286 9.94431 15.9935 10.0141H13.9825C13.633 9.94431 13.3534 9.75216 13.1961 9.40206C13.0566 9.06996 13.1263 8.61591 13.3709 8.33601C13.5808 8.09121 13.8781 7.95126 14.2102 7.96859L15.994 7.98614L15.9937 7.98636ZM19.6129 9.61266C19.5607 9.82259 19.3856 10.0143 19.1759 10.0492H16.7279L16.6408 10.0143C16.6408 9.31544 16.6233 8.65124 16.6588 7.96904H18.2143C18.7039 8.02146 19.2459 7.81154 19.4736 8.26649C19.5433 8.42399 19.5258 8.63369 19.4034 8.75609C19.3336 8.87826 19.1761 8.89604 19.1413 8.98334C19.3336 9.03554 19.5431 9.19304 19.6133 9.38541V9.61266H19.6129ZM17.5147 8.17896C17.4625 8.37089 17.4625 8.63346 17.4974 8.84271C17.8648 8.82606 18.3367 8.96556 18.5812 8.68611C18.669 8.58036 18.6163 8.40621 18.5637 8.31824C18.284 8.07389 17.8648 8.23116 17.5147 8.17874V8.17896ZM18.4593 9.14039C18.1272 9.08796 17.7946 9.10529 17.4801 9.12284C17.4628 9.38496 17.4801 9.59489 17.515 9.83969C17.8651 9.83969 18.2494 9.89144 18.5639 9.73439C18.6517 9.64731 18.7039 9.50714 18.6697 9.38496C18.6517 9.28034 18.5639 9.19259 18.4595 9.14016L18.4593 9.14039Z" fill="white"/>
</g>
<defs>
<clipPath id="clip0_1393_2286">
<rect width="28.8" height="18" fill="white" transform="translate(0.199219)"/>
</clipPath>
</defs>
</svg>
