<svg width="39" height="24" viewBox="0 0 39 24" fill="none" xmlns="http://www.w3.org/2000/svg">
<g clip-path="url(#clip0_1392_1195)">
<path d="M39 22.7202C39 23.427 38.418 24 37.7002 24H1.30041C0.581953 24 0 23.427 0 22.7202V1.2804C0 0.573 0.581953 0 1.30041 0H37.7005C38.418 0 39 0.573 39 1.2804V22.7202Z" fill="white"/>
<path d="M17.9492 15.6114H16.0449L17.2354 8.40604H19.1406M14.4414 8.40604L12.6254 13.362L12.4106 12.2946L11.7693 9.05464C11.7693 9.05464 11.6922 8.40604 10.8656 8.40604H7.86316L7.82812 8.52814C7.82812 8.52814 8.74645 8.71594 9.82139 9.35164L11.4765 15.6111H13.4609L16.4919 8.40604H14.4414ZM29.4271 15.6114H31.176L29.6514 8.40604H28.1197C27.4128 8.40604 27.2401 8.94304 27.2401 8.94304L24.3992 15.6114H26.3848L26.7818 14.5413H29.2035L29.4271 15.6114ZM27.3309 13.0626L28.3315 10.3656L28.8951 13.0626H27.3309ZM24.5479 10.1385L24.8199 8.59114C24.8199 8.59114 23.9805 8.27734 23.1064 8.27734C22.1603 8.27734 19.9151 8.68444 19.9151 10.6623C19.9151 12.5241 22.5506 12.5475 22.5506 13.5243C22.5506 14.5023 20.1872 14.3277 19.4062 13.7109L19.1229 15.3285C19.1229 15.3285 19.9739 15.7353 21.274 15.7353C22.5738 15.7353 24.5357 15.0723 24.5357 13.2687C24.5357 11.3955 21.8773 11.2209 21.8773 10.4067C21.8773 9.59194 23.7328 9.69664 24.5475 10.1388L24.5479 10.1385Z" fill="#0A67B2"/>
<path d="M12.4067 12.2912L11.7654 9.05124C11.7654 9.05124 11.6883 8.40234 10.8616 8.40234H7.85926L7.82422 8.52444C7.82422 8.52444 9.26752 8.81904 10.6517 9.92244C11.9756 10.9769 12.4067 12.2912 12.4067 12.2912Z" fill="#FAA634"/>
</g>
<rect x="0.5" y="0.5" width="38" height="23" rx="1.5" stroke="#EDEDED"/>
<defs>
<clipPath id="clip0_1392_1195">
<rect width="39" height="24" rx="2" fill="white"/>
</clipPath>
</defs>
</svg>
