<svg width="39" height="24" viewBox="0 0 39 24" fill="none" xmlns="http://www.w3.org/2000/svg">
<g clip-path="url(#clip0_1392_1223)">
<path fill-rule="evenodd" clip-rule="evenodd" d="M39 22.7202C39 22.8883 38.9664 23.0548 38.901 23.2101C38.8356 23.3654 38.7398 23.5065 38.6191 23.6254C38.4983 23.7442 38.355 23.8385 38.1972 23.9028C38.0394 23.967 37.8703 24.0001 37.6996 24H1.2998C1.12909 24 0.960055 23.967 0.802339 23.9027C0.644622 23.8384 0.501318 23.7441 0.380612 23.6252C0.259907 23.5064 0.164166 23.3653 0.0988597 23.21C0.0335529 23.0547 -3.99931e-05 22.8883 3.57312e-08 22.7202V1.281C3.57312e-08 0.573 0.581953 0 1.2998 0H37.6999C37.8707 -4.15665e-08 38.0398 0.0331405 38.1976 0.0975278C38.3554 0.161915 38.4988 0.256287 38.6195 0.375251C38.7403 0.494214 38.836 0.635438 38.9013 0.790851C38.9666 0.946263 39.0001 1.11282 39 1.281V22.7202Z" fill="#000066"/>
<path fill-rule="evenodd" clip-rule="evenodd" d="M31.0391 14.0653V13.8082H30.9718L30.8941 13.9852L30.8164 13.8082H30.7488V14.0653H30.7966V13.8715L30.8694 14.0386H30.9188L30.9919 13.8709V14.0653H31.0391ZM30.6114 14.0653V13.8523H30.6979V13.8088H30.4776V13.852H30.5641V14.0653H30.6114ZM31.0529 10.2442C31.0529 14.2213 27.8134 17.4454 23.8174 17.4454C19.8215 17.4454 16.582 14.2213 16.582 10.2442C16.582 6.26707 19.8215 3.04297 23.8174 3.04297C27.8134 3.04297 31.0529 6.26707 31.0529 10.2442Z" fill="#F79F1A"/>
<path fill-rule="evenodd" clip-rule="evenodd" d="M22.131 10.2442C22.131 14.2213 18.8915 17.4454 14.8956 17.4454C10.8996 17.4454 7.66016 14.2213 7.66016 10.2442C7.66016 6.26707 10.8996 3.04297 14.8956 3.04297C18.8915 3.04297 22.131 6.26707 22.131 10.2442Z" fill="#EA001B"/>
<path fill-rule="evenodd" clip-rule="evenodd" d="M19.3538 4.57422C18.4871 5.25164 17.7875 6.11352 17.3074 7.09521C16.8274 8.07689 16.5794 9.15288 16.5821 10.2424C16.5794 11.3323 16.8274 12.4085 17.3075 13.3905C17.7876 14.3725 18.4873 15.2347 19.3541 15.9124C20.2209 15.2347 20.9205 14.3725 21.4005 13.3905C21.8806 12.4085 22.1285 11.3322 22.1258 10.2424C22.1285 9.15288 21.8805 8.07689 21.4004 7.09521C20.9204 6.11352 20.2205 5.25164 19.3538 4.57422Z" fill="#FF5F01"/>
<path fill-rule="evenodd" clip-rule="evenodd" d="M30.7619 20.7387C30.7094 20.7383 30.6588 20.7584 30.6214 20.7947C30.6032 20.8124 30.5888 20.8335 30.579 20.8567C30.5691 20.88 30.564 20.9049 30.564 20.9301C30.564 20.9552 30.5691 20.9801 30.579 21.0034C30.5888 21.0266 30.6032 21.0477 30.6214 21.0653C30.649 21.092 30.6839 21.1101 30.7218 21.1175C30.7597 21.1248 30.799 21.1211 30.8348 21.1067C30.8706 21.0924 30.9013 21.068 30.9232 21.0367C30.9452 21.0054 30.9573 20.9684 30.9581 20.9304C30.9577 20.8793 30.9369 20.8306 30.9001 20.7946C30.8634 20.7586 30.8137 20.7387 30.7619 20.7387ZM30.7619 21.0798C30.742 21.0799 30.7222 21.0761 30.7038 21.0686C30.6854 21.0611 30.6687 21.0501 30.6546 21.0362C30.6406 21.0223 30.6295 21.0058 30.622 20.9876C30.6146 20.9694 30.6108 20.95 30.6111 20.9304C30.6098 20.9102 30.6127 20.89 30.6196 20.8709C30.6266 20.8519 30.6374 20.8345 30.6514 20.8197C30.6655 20.805 30.6825 20.7932 30.7013 20.7852C30.7201 20.7772 30.7404 20.773 30.761 20.773C30.7815 20.773 30.8018 20.7772 30.8207 20.7852C30.8395 20.7932 30.8565 20.805 30.8705 20.8197C30.8846 20.8345 30.8954 20.8519 30.9023 20.8709C30.9093 20.89 30.9122 20.9102 30.9109 20.9304C30.911 20.9698 30.8953 21.0077 30.8673 21.0359C30.8536 21.0498 30.8372 21.0608 30.8191 21.0684C30.801 21.0759 30.7815 21.0798 30.7619 21.0798ZM30.7732 20.8403H30.6903V21.0186H30.7287V20.952H30.7464L30.8006 21.0186H30.8463L30.7878 20.9514C30.8036 20.9503 30.8186 20.9441 30.8304 20.9337C30.8353 20.9289 30.8391 20.9232 30.8416 20.917C30.8441 20.9107 30.8453 20.9041 30.8451 20.8974C30.8454 20.8895 30.8439 20.8817 30.8407 20.8745C30.8374 20.8673 30.8326 20.861 30.8265 20.856C30.8111 20.8448 30.7922 20.8393 30.7732 20.8403ZM30.7729 20.8739C30.7829 20.8739 30.7911 20.8758 30.7969 20.88C30.803 20.8839 30.8058 20.8896 30.8061 20.8974C30.8058 20.9055 30.803 20.9114 30.7969 20.9153C30.7896 20.9198 30.7811 20.9219 30.7726 20.9214H30.7287V20.8736L30.7729 20.8739ZM9.26649 20.9996H8.85547V19.0961H9.25796V19.3283C9.25796 19.3283 9.6114 19.0448 9.82163 19.0481C10.2299 19.055 10.4737 19.4001 10.4737 19.4001C10.4737 19.4001 10.6717 19.0481 11.1178 19.0481C11.7777 19.0481 11.8743 19.6481 11.8743 19.6481V20.9915H11.48V19.808C11.48 19.808 11.4813 19.4481 11.0535 19.4481C10.6105 19.4481 10.5703 19.808 10.5703 19.808V20.9915H10.1598V19.8C10.1598 19.8 10.1202 19.424 9.74912 19.424C9.2671 19.424 9.25796 19.808 9.25796 19.808L9.26619 20.9996H9.26649ZM21.7523 19.0481C21.5424 19.0445 21.1889 19.328 21.1889 19.328V19.0964H20.7861V20.9993H21.1968L21.1889 19.808C21.1889 19.808 21.1981 19.425 21.6801 19.425C21.7697 19.425 21.8391 19.4466 21.894 19.4796V19.478L22.028 19.1076C21.9409 19.0703 21.8472 19.0501 21.7523 19.0481ZM27.5359 19.0481C27.3259 19.0445 26.9725 19.328 26.9725 19.328V19.0964H26.57V20.9993H26.9807L26.9728 19.808C26.9728 19.808 26.9819 19.425 27.464 19.425C27.5535 19.425 27.623 19.4466 27.6782 19.4796V19.478L27.8119 19.1076C27.7249 19.0704 27.6313 19.0502 27.5365 19.0481H27.5359ZM13.2024 19.0403C12.5879 19.0403 12.2628 19.5888 12.261 20.0472C12.2594 20.517 12.6312 21.0588 13.2195 21.0588C13.5629 21.0588 13.845 20.807 13.845 20.807L13.8441 21.0012H14.2484V19.0959H13.8426V19.3358C13.8426 19.3358 13.5778 19.0403 13.2024 19.0403ZM13.2811 19.4279C13.611 19.4279 13.8792 19.7133 13.8792 20.0646C13.8792 20.4155 13.611 20.6993 13.2811 20.6993C12.9508 20.6993 12.6845 20.4155 12.6845 20.0646C12.6845 19.7136 12.9508 19.4279 13.2811 19.4279ZM24.9884 19.0403C24.3738 19.0403 24.0487 19.5888 24.0469 20.0472C24.0454 20.517 24.4171 21.0588 25.0054 21.0588C25.3488 21.0588 25.631 20.807 25.631 20.807L25.63 21.0012H26.0341V19.0959H25.6288V19.3358C25.6288 19.3358 25.3637 19.0403 24.9884 19.0403ZM25.067 19.4279C25.397 19.4279 25.6651 19.7133 25.6651 20.0646C25.6651 20.4155 25.397 20.6993 25.067 20.6993C24.7367 20.6993 24.4704 20.4155 24.4704 20.0646C24.4704 19.7136 24.7367 19.4279 25.067 19.4279ZM28.8686 19.0403C28.254 19.0403 27.9289 19.5888 27.9271 20.0472C27.9256 20.517 28.2976 21.0588 28.8859 21.0588C29.229 21.0588 29.5112 20.807 29.5112 20.807L29.5105 21.0012H29.9146V18.3438H29.509V19.3358C29.509 19.3358 29.2439 19.0403 28.8686 19.0403ZM28.9472 19.4279C29.2775 19.4279 29.5453 19.7133 29.5453 20.0646C29.5453 20.4155 29.2772 20.6993 28.9472 20.6993C28.6172 20.6993 28.3506 20.4155 28.3506 20.0646C28.3506 19.7136 28.6172 19.4279 28.9472 19.4279ZM15.4815 21.0636C15.0629 21.0636 14.6762 20.8076 14.6762 20.8076L14.8535 20.5358C14.8535 20.5358 15.2192 20.7038 15.4812 20.7038C15.6518 20.7038 15.9367 20.649 15.9404 20.4798C15.944 20.301 15.4611 20.2479 15.4611 20.2479C15.4611 20.2479 14.7408 20.2383 14.7408 19.6479C14.7408 19.2771 15.1003 19.0403 15.5619 19.0403C15.8285 19.0403 16.3267 19.2723 16.3267 19.2723L16.1256 19.5843C16.1256 19.5843 15.7408 19.4312 15.5376 19.424C15.3663 19.418 15.1595 19.4996 15.1595 19.6481C15.1595 20.0516 16.359 19.6166 16.359 20.4317C16.359 20.9666 15.8703 21.0636 15.4815 21.0636ZM17.0257 18.5444V19.098H16.6683V19.4984H17.0257V20.4555C17.0257 20.4555 16.994 21.1025 17.6945 21.1025C17.8882 21.1025 18.2673 20.9604 18.2673 20.9604L18.1055 20.5445C18.1055 20.5445 17.9547 20.6724 17.7843 20.6679C17.4605 20.6598 17.4696 20.4536 17.4696 20.4536V19.4984H18.1369V19.0977H17.4696V18.5441L17.0257 18.5444ZM19.4574 19.0638C18.7986 19.0638 18.4696 19.6028 18.472 20.0705C18.4751 20.5517 18.7718 21.0936 19.497 21.0936C19.8072 21.0936 20.2429 20.8227 20.2429 20.8227L20.0555 20.4989C20.0555 20.4989 19.7581 20.7087 19.497 20.7087C18.9735 20.7087 18.9394 20.2005 18.9394 20.2005H20.3407C20.3407 20.2005 20.4452 19.0638 19.4574 19.0638ZM19.3977 19.4372C19.4132 19.4366 19.43 19.4372 19.4464 19.4372C19.9394 19.4372 19.936 19.9002 19.936 19.9002H18.9397C18.9397 19.9002 18.9159 19.4645 19.3977 19.4372ZM23.6246 20.4941L23.8123 20.8674C23.8123 20.8674 23.5146 21.0597 23.1804 21.0597C22.4887 21.0597 22.1048 20.5424 22.1048 20.0531C22.1048 19.2839 22.7157 19.0578 23.1292 19.0578C23.5045 19.0578 23.8293 19.2729 23.8293 19.2729L23.6188 19.6461C23.6188 19.6461 23.4908 19.4481 23.1179 19.4481C22.7453 19.4481 22.5484 19.7672 22.5484 20.0699C22.5484 20.4095 22.7776 20.6979 23.1234 20.6979C23.3949 20.6979 23.6246 20.4941 23.6246 20.4941Z" fill="white"/>
</g>
<defs>
<clipPath id="clip0_1392_1223">
<rect width="39" height="24" fill="white"/>
</clipPath>
</defs>
</svg>
