<svg width="25" height="16" viewBox="0 0 25 16" fill="none" xmlns="http://www.w3.org/2000/svg">
<g clip-path="url(#clip0_1508_2018)">
<path d="M24.5 14.6999C24.5 15.1417 24.1419 15.5 23.6998 15.5H1.29987C0.858125 15.5 0.5 15.1419 0.5 14.6999V1.29969C0.5 0.858125 0.858125 0.5 1.29987 0.5H23.6999C24.1419 0.5 24.5 0.858125 24.5 1.29969V14.6999Z" fill="#0078A9"/>
<path d="M7.94598 7.64975V7.40975L7.83123 7.64975H6.83748L6.71261 7.39231V7.64975H4.85523L4.63586 7.13038H4.26367L4.03117 7.64975H3.06836V6.08169L3.77411 4.48456H5.12598L5.31573 4.93719V4.48794H6.96873L7.33248 5.24994L7.68798 4.48456H12.9065C12.9065 4.48456 13.1802 4.48081 13.3602 4.60756L13.3591 4.48456H14.6739V4.65763C14.6739 4.65763 14.9105 4.48438 15.26 4.48438H17.5799L17.7835 4.94375V4.48438H19.2704L19.5404 4.94375V4.48438H20.9617V7.65275H19.5014L19.1583 7.10038V7.64975H17.3433L17.0883 7.08388H16.7326L16.4934 7.64994H15.3946C15.3946 7.64994 14.9851 7.64488 14.678 7.42494V7.64994H12.4914V6.91081C12.4914 6.80356 12.4092 6.81106 12.4092 6.81106H12.3292V7.65013H7.94617L7.94598 7.64975ZM6.85473 8.33581H9.7278L10.1427 8.80531L10.5669 8.33581H12.7756C12.7756 8.33581 12.9832 8.34106 13.1802 8.44644V8.33581H15.1471C15.397 8.33581 15.6065 8.46069 15.6065 8.46069V8.33581H18.1351V8.45094C18.1351 8.45094 18.3151 8.33581 18.5574 8.33581H20.2047V8.45094C20.2047 8.45094 20.4121 8.33581 20.6315 8.33581H21.9249V11.3216C21.9249 11.3216 21.7548 11.5139 21.403 11.5139H19.6977V11.4191C19.6977 11.4191 19.5357 11.5139 19.2882 11.5139H14.7582V10.7422C14.7582 10.6664 14.7254 10.6526 14.6579 10.6526H14.596V11.5139H13.1804V10.6578C13.1804 10.6578 13.0233 10.7422 12.7612 10.7422H12.2521V11.5139H10.5065L10.1097 11.0296L9.68505 11.5139H6.85492L6.85473 8.33581Z" fill="white"/>
<path d="M15.9102 8.81575H17.7134V9.2995H16.4622V9.72081H17.6781V10.147H16.462V10.5904H17.7132V11.062H15.9102M21.1968 9.691C21.8742 9.7255 21.931 10.0641 21.931 10.4253C21.931 10.846 21.5851 11.0721 21.2241 11.0721H20.0658V10.5903H20.9682C21.1212 10.5903 21.3494 10.5903 21.3494 10.375C21.3494 10.2724 21.3093 10.207 21.1463 10.1899C21.0738 10.1794 20.806 10.1646 20.7651 10.1637C20.153 10.1478 20.0105 9.84306 20.0105 9.47237C20.0105 9.05125 20.3063 8.82081 20.6678 8.82081H21.826V9.30212H20.9785C20.7854 9.304 20.5773 9.27962 20.5773 9.49713C20.5773 9.63513 20.68 9.66288 20.8103 9.67525C20.8553 9.67563 21.1563 9.69138 21.1968 9.691ZM19.1202 9.691C19.7978 9.7255 19.8548 10.0641 19.8548 10.4253C19.8548 10.846 19.5091 11.0721 19.148 11.0721H17.9896V10.5903H18.892C19.0448 10.5903 19.2732 10.5903 19.2732 10.375C19.2732 10.2724 19.2327 10.207 19.07 10.1899C18.9974 10.1794 18.7291 10.1646 18.6893 10.1637C18.0762 10.1478 17.9346 9.84306 17.9346 9.47237C17.9346 9.05125 18.2301 8.82081 18.5913 8.82081H19.7493V9.30212H18.9018C18.7086 9.304 18.5005 9.27962 18.5005 9.49713C18.5005 9.63513 18.6036 9.66288 18.7341 9.67525C18.7791 9.67563 19.0799 9.69138 19.1198 9.691H19.1202ZM12.5808 8.82044H10.6452L10.0133 9.51756L9.4017 8.81594H7.22801V11.0622H9.33139L9.99326 10.3203L10.6401 11.0678H11.6984V10.3049H12.4401C12.7261 10.3049 13.2479 10.2949 13.2479 9.50763C13.2479 8.94569 12.8517 8.82044 12.5808 8.82044ZM9.04339 10.5904H7.77158V10.147H8.98808V9.721H7.77158V9.2995L9.11295 9.3025L9.64976 9.91375L9.04358 10.5906L9.04339 10.5904ZM11.1515 10.8511L10.3593 9.91356L11.1515 9.03606V10.8511ZM12.395 9.84194H11.708V9.30288H12.3972C12.6278 9.30288 12.701 9.451 12.701 9.56106C12.701 9.71163 12.6203 9.84231 12.395 9.84231V9.84194ZM15.245 10.0443C15.5461 9.89388 15.6261 9.69325 15.6261 9.42231C15.6261 8.94138 15.2352 8.821 14.9643 8.821H13.5305V11.0673H14.0821V10.2749H14.804C14.9948 10.2749 15.0698 10.4654 15.0745 10.6559L15.0891 11.0673H15.6263L15.6063 10.6056C15.6063 10.2443 15.5063 10.0741 15.2451 10.0441L15.245 10.0443ZM14.7687 9.81175H14.0821V9.3025H14.771C15.0016 9.3025 15.0743 9.45063 15.0743 9.56069C15.0743 9.71125 14.9946 9.81175 14.7687 9.81175ZM13.7511 4.9375H14.3028V7.18675H13.7511V4.9375ZM9.23633 4.9405H11.0388V5.42387H9.78776V5.84538H11.0033V6.27156H9.78833V6.71481H11.039V7.18637H9.2367M13.0812 6.16338C13.3823 6.01338 13.4624 5.81238 13.4624 5.54163C13.4624 5.06031 13.0711 4.94031 12.8005 4.94031H11.3661V7.18656H11.9178V6.394H12.6396C12.8305 6.394 12.9059 6.58431 12.9108 6.77463L12.9258 7.18619H13.4624L13.4425 6.72456C13.4421 6.364 13.3416 6.19356 13.081 6.16319L13.0812 6.16338ZM12.6046 5.93088H11.9178V5.422H12.6074C12.8376 5.422 12.9108 5.57013 12.9108 5.68019C12.9108 5.83075 12.8301 5.93088 12.6046 5.93088ZM7.96395 4.9405L7.28708 6.44706L6.61264 4.94031H5.74827V7.1035L4.78508 4.9405H4.05514L3.07227 7.18675H3.65408L3.86933 6.685H4.96995L5.18839 7.18656H6.29877V5.51894L7.0362 7.18637H7.53777L8.29227 5.54631V7.18619H8.84351V4.9405H7.96395ZM4.0782 6.2005L4.40727 5.41525L4.75002 6.2005H4.0782ZM19.994 4.93919V6.4945L19.064 4.93919H18.2489V7.04856L17.309 4.9405H16.5796L15.8198 6.6805C15.8198 6.6805 15.4988 6.6805 15.4662 6.67244C15.3336 6.64506 15.1259 6.55131 15.1231 6.15494V5.99219C15.1231 5.46531 15.409 5.42688 15.7756 5.42688H16.1161V4.93881H15.3961C15.1448 4.93881 14.5992 5.13006 14.581 6.05256C14.5683 6.6745 14.8392 7.18731 15.451 7.18731H16.1781L16.3934 6.68575H17.494L17.7123 7.18713H18.8005V5.54237L19.7931 7.1875H20.5454V4.93938H19.9941L19.994 4.93919ZM16.6062 6.20163L16.9347 5.41638L17.2808 6.20163H16.6062Z" fill="#0078A9"/>
</g>
<defs>
<clipPath id="clip0_1508_2018">
<rect width="24" height="15" fill="white" transform="translate(0.5 0.5)"/>
</clipPath>
</defs>
</svg>
