<svg width="17" height="16" viewBox="0 0 17 16" fill="none" xmlns="http://www.w3.org/2000/svg">
<g clip-path="url(#clip0_1508_2277)">
<path d="M8.5 5C9.05228 5 9.5 4.55228 9.5 4C9.5 3.44772 9.05228 3 8.5 3C7.94772 3 7.5 3.44772 7.5 4C7.5 4.55228 7.94772 5 8.5 5Z" fill="black"/>
<path d="M8.5 9C9.05228 9 9.5 8.55228 9.5 8C9.5 7.44772 9.05228 7 8.5 7C7.94772 7 7.5 7.44772 7.5 8C7.5 8.55228 7.94772 9 8.5 9Z" fill="black"/>
<path d="M8.5 13C9.05228 13 9.5 12.5523 9.5 12C9.5 11.4477 9.05228 11 8.5 11C7.94772 11 7.5 11.4477 7.5 12C7.5 12.5523 7.94772 13 8.5 13Z" fill="black"/>
</g>
<defs>
<clipPath id="clip0_1508_2277">
<rect width="16" height="16" fill="white" transform="translate(0.5)"/>
</clipPath>
</defs>
</svg>
