<svg width="24" height="24" viewBox="0 0 24 24" fill="none" xmlns="http://www.w3.org/2000/svg">
<g clip-path="url(#clip0_84_3627)">
<path d="M3.75 20.25H1.5V22.5H3.75V20.25Z" fill="black"/>
<path d="M22.2831 5.46809L18.5331 1.71809C18.3926 1.57841 18.2025 1.5 18.0043 1.5C17.8062 1.5 17.6161 1.57841 17.4756 1.71809L15.0006 4.19309L14.0331 3.21809L12.9681 4.28309L13.9431 5.25059L6.21809 12.9681C6.14858 13.0382 6.09359 13.1213 6.05627 13.2127C6.01894 13.304 6.00002 13.4019 6.00059 13.5006V14.6931L3.96809 16.7181C3.82841 16.8586 3.75 17.0487 3.75 17.2468C3.75 17.445 3.82841 17.6351 3.96809 17.7756L6.21809 20.0256C6.35862 20.1653 6.54871 20.2437 6.74684 20.2437C6.94498 20.2437 7.13507 20.1653 7.27559 20.0256L9.30809 18.0006H10.5006C10.5993 18.0012 10.6971 17.9822 10.7885 17.9449C10.8799 17.9076 10.963 17.8526 11.0331 17.7831L18.7506 10.0581L19.7181 11.0331L20.7831 9.96809L19.8081 9.00059L22.2831 6.53309C22.4228 6.39257 22.5012 6.20248 22.5012 6.00434C22.5012 5.80621 22.4228 5.61612 22.2831 5.47559V5.46809ZM10.1931 16.5006H8.69309L6.75059 18.4431L5.55809 17.2506L7.50059 15.3081V13.8081L15.0006 6.30809L17.6931 9.00059L10.1931 16.5006ZM18.7506 7.94309L16.0581 5.25059L18.0006 3.30809L20.6931 6.00059L18.7506 7.94309Z" fill="black"/>
</g>
<defs>
<clipPath id="clip0_84_3627">
<rect width="24" height="24" fill="white"/>
</clipPath>
</defs>
</svg>
