<svg width="24" height="24" viewBox="0 0 24 24" fill="none" xmlns="http://www.w3.org/2000/svg">
<g clip-path="url(#clip0_84_3617)">
<path d="M16.5 5.25C17.3284 5.25 18 4.57843 18 3.75C18 2.92157 17.3284 2.25 16.5 2.25C15.6716 2.25 15 2.92157 15 3.75C15 4.57843 15.6716 5.25 16.5 5.25Z" fill="black"/>
<path d="M7.5 21.75C8.32843 21.75 9 21.0784 9 20.25C9 19.4216 8.32843 18.75 7.5 18.75C6.67157 18.75 6 19.4216 6 20.25C6 21.0784 6.67157 21.75 7.5 21.75Z" fill="black"/>
<path d="M16.5687 20.9997H10.5V19.4997H16.5687L20.9998 11.9997L18.9755 8.57375L20.2675 7.81055L22.2919 11.2365C22.5694 11.707 22.5694 12.2922 22.2919 12.7629L17.86 20.2629C17.5919 20.717 17.0968 20.9997 16.5687 20.9997Z" fill="black"/>
<path d="M3.73258 16.1895L1.70818 12.7632C1.43061 12.2927 1.43061 11.7074 1.70818 11.2368L6.14008 3.7368C6.40888 3.2823 6.90328 3 7.43136 3H13.5001V4.5H7.43136L3.00021 12L5.02461 15.4263L3.73258 16.1895Z" fill="black"/>
<path d="M15.9585 16.896H14.4195L9.789 9.8895V16.896H8.25V7.5H9.789L14.4195 14.493V7.5H15.9585V16.896Z" fill="black"/>
</g>
<defs>
<clipPath id="clip0_84_3617">
<rect width="24" height="24" fill="white"/>
</clipPath>
</defs>
</svg>
