<svg width="24" height="24" viewBox="0 0 24 24" fill="none" xmlns="http://www.w3.org/2000/svg">
<g clip-path="url(#clip0_84_3597)">
<path d="M12 18V16.5C12.5799 16.4498 13.1235 16.1966 13.5351 15.7851C13.9466 15.3735 14.1998 14.8299 14.25 14.25H15.75C15.7015 15.2289 15.2909 16.1548 14.5979 16.8479C13.9048 17.5409 12.9789 17.9515 12 18Z" fill="black"/>
<path d="M12 21.0001C10.2105 20.9978 8.49491 20.2859 7.22953 19.0205C5.96415 17.7552 5.25226 16.0396 5.25 14.2501C5.29035 12.9343 5.67686 11.6523 6.37057 10.5335L11.3646 2.5776C11.4367 2.4763 11.532 2.39371 11.6426 2.33672C11.7531 2.27973 11.8756 2.25 12 2.25C12.1244 2.25 12.2469 2.27973 12.3574 2.33672C12.468 2.39371 12.5633 2.4763 12.6354 2.5776L17.6071 10.4949C18.3126 11.6239 18.7069 12.9195 18.75 14.2501C18.7477 16.0396 18.0359 17.7552 16.7705 19.0205C15.5051 20.2859 13.7895 20.9978 12 21.0001ZM12 4.3863L7.66372 11.2922C7.10492 12.1809 6.7898 13.201 6.75 14.2501C6.75 15.6425 7.30312 16.9778 8.28769 17.9624C9.27226 18.947 10.6076 19.5001 12 19.5001C13.3924 19.5001 14.7277 18.947 15.7123 17.9624C16.6969 16.9778 17.25 15.6425 17.25 14.2501C17.2073 13.1863 16.8844 12.1526 16.314 11.2536L12 4.3863Z" fill="black"/>
</g>
<defs>
<clipPath id="clip0_84_3597">
<rect width="24" height="24" fill="white"/>
</clipPath>
</defs>
</svg>
