<svg width="24" height="24" viewBox="0 0 24 24" fill="none" xmlns="http://www.w3.org/2000/svg">
<g clip-path="url(#clip0_84_3604)">
<path d="M3 3V4.5H6V10.5C6 12.0913 6.63214 13.6174 7.75736 14.7426C8.88258 15.8679 10.4087 16.5 12 16.5C13.5913 16.5 15.1174 15.8679 16.2426 14.7426C17.3679 13.6174 18 12.0913 18 10.5V4.5H21V3H3ZM16.5 10.5C16.5 11.6935 16.0259 12.8381 15.182 13.682C14.3381 14.5259 13.1935 15 12 15C10.8065 15 9.66193 14.5259 8.81802 13.682C7.97411 12.8381 7.5 11.6935 7.5 10.5V4.5H11.25V10.5H12.75V4.5H16.5V10.5Z" fill="black"/>
<path d="M9.75 19.5H8.25V21H9.75V19.5Z" fill="black"/>
<path d="M6.75 18H5.25V19.5H6.75V18Z" fill="black"/>
<path d="M12.75 18H11.25V19.5H12.75V18Z" fill="black"/>
<path d="M15.75 19.5H14.25V21H15.75V19.5Z" fill="black"/>
<path d="M18.75 18H17.25V19.5H18.75V18Z" fill="black"/>
</g>
<defs>
<clipPath id="clip0_84_3604">
<rect width="24" height="24" fill="white"/>
</clipPath>
</defs>
</svg>
