<svg width="32" height="32" viewBox="0 0 32 32" fill="none" xmlns="http://www.w3.org/2000/svg">
<rect width="32" height="32" rx="16" fill="white"/>
<path d="M14.0557 16.0005L9.99798 11.9275C9.85965 11.789 9.78631 11.6175 9.77798 11.413C9.76965 11.2085 9.84298 11.0287 9.99798 10.8735C10.143 10.7287 10.3186 10.6562 10.525 10.6562C10.7313 10.6562 10.907 10.7287 11.052 10.8735L15.5462 15.3678C15.6397 15.4614 15.7057 15.5602 15.7442 15.664C15.7827 15.7678 15.802 15.88 15.802 16.0005C15.802 16.121 15.7827 16.2332 15.7442 16.337C15.7057 16.4408 15.6397 16.5396 15.5462 16.6333L11.052 21.1275C10.9135 21.2658 10.742 21.3392 10.5375 21.3475C10.333 21.3558 10.1531 21.2825 9.99798 21.1275C9.85315 20.9825 9.78073 20.8068 9.78073 20.6005C9.78073 20.3942 9.85315 20.2185 9.99798 20.0735L14.0557 16.0005ZM20.4057 16.0005L16.348 11.9275C16.2096 11.789 16.1363 11.6175 16.128 11.413C16.1196 11.2085 16.193 11.0287 16.348 10.8735C16.493 10.7287 16.6686 10.6562 16.875 10.6562C17.0813 10.6562 17.257 10.7287 17.402 10.8735L21.896 15.3678C21.9896 15.4614 22.0557 15.5602 22.0942 15.664C22.1327 15.7678 22.152 15.88 22.152 16.0005C22.152 16.121 22.1327 16.2332 22.0942 16.337C22.0557 16.4408 21.9896 16.5396 21.896 16.6333L17.402 21.1275C17.2635 21.2658 17.092 21.3392 16.8875 21.3475C16.683 21.3558 16.5031 21.2825 16.348 21.1275C16.2031 20.9825 16.1307 20.8068 16.1307 20.6005C16.1307 20.3942 16.2031 20.2185 16.348 20.0735L20.4057 16.0005Z" fill="#AE7E56"/>
</svg>
