<svg width="32" height="32" viewBox="0 0 32 32" fill="none" xmlns="http://www.w3.org/2000/svg">
<rect width="32" height="32" rx="16" fill="white"/>
<path fill-rule="evenodd" clip-rule="evenodd" d="M9.34766 7.6875H10.1602H15.1824C16.9996 7.6875 18.4727 9.16059 18.4727 10.9777C18.4727 12.7441 17.0808 14.1854 15.3339 14.2646L17.84 17.2649L20.9845 13.5H22.9995L23.0597 13.5503L18.8986 18.5324L23.0479 23.5H20.9306L17.8401 19.7999L14.7498 23.5H12.6326L16.7814 18.5325L13.2195 14.268H10.9727V18.5H9.34766V8.5V7.6875ZM10.9727 12.643H15.1824C16.1021 12.643 16.8477 11.8974 16.8477 10.9777C16.8477 10.058 16.1021 9.3125 15.1824 9.3125H10.9727V12.643Z" fill="#AE7E56"/>
</svg>
